<?xml version="1.0" ?><!DOCTYPE svg  PUBLIC '-//W3C//DTD SVG 1.1//EN'  'http://www.w3.org/Graphics/SVG/1.1/DTD/svg11.dtd'><svg enable-background="new 0 0 512 512" id="Layer_1" version="1.1" viewBox="0 0 512 512" xml:space="preserve" xmlns="http://www.w3.org/2000/svg" xmlns:xlink="http://www.w3.org/1999/xlink"><g><path d="M258.8,280.1c-0.1,1.7-0.4,3.4-0.4,5.1c-0.2,23.1-4.1,45.4-12.7,66.9c-4.3,10.9-10.4,15.9-22.1,14.7   c-17.2-1.7-34.5-3.8-51.4-7.3c-22-4.5-43.8-10.2-65.5-16c-10.8-2.9-21.5-7-27.1-17.9c-3.4-6.6-6.6-13.5-8.7-20.6   c-9.7-31.8-15.6-64.4-20.8-97.1c-2.3-14.3-4.1-28.7-5.5-43.1c-0.6-6.2-0.2-12.7,1-18.9c3.4-17.7,14.6-28.6,32.6-29.8   c18.9-1.3,38-0.6,56.9-1.1c4.1-0.1,8.6-1.3,12.2-3.3c6.5-3.7,8.4-10.3,8.3-17.6c-0.3-16-0.5-32-0.6-48c-0.1-21.3,10.3-34.8,31-40.1   c16.2-4.1,32.8-3.9,49.2-2.3c11.5,1.1,23,3.5,34.2,6.6c13.9,3.8,21.7,14.2,25.4,27.7c1,3.8,2.5,5,6.4,4.8   c39-1.6,77.5,2.2,115.7,10.2c12.6,2.6,24.6,6.5,32.6,17.6c6.7,9.2,8.9,19.9,10.1,31c7.1,65.3,11.4,130.8,9.3,196.6   c-1.2,36.5-7.2,72.6-14.6,108.3c-4.8,23.4-11.5,46.2-22.3,67.6c-7.6,15.2-17.7,28-34.9,32.8c-7.6,2.1-15.7,3.3-23.6,3.7   c-24.8,1.3-49.7,1.5-74.3-2.7c-14.2-2.5-27.4-7.6-35.3-21c-4.7-7.9-6.6-16.6-7.5-25.7c-1.8-17.4-1.7-34.6,3.8-51.4   c5.2-16.1,16.9-24.7,33-26.5c13.5-1.5,27.2-1.1,40.9-1.6c3.5-0.1,4.6,1.7,3.4,4.7c-3.5,8.7-3.7,17.5-1.7,26.5   c0.8,3.5-0.7,4.9-4.2,5c-6.5,0.2-13,0.1-19.4,1c-9,1.4-13.2,6.9-13.4,15.9c0,1,0,2,0,3c0.3,13.7,4.9,19.7,18.5,20.5   c15.3,0.8,30.7,0.7,45.9-0.5c13.9-1.1,19.9-6.7,21.8-20.4c2.8-20.6,2.1-41.2-4.3-61.3c-4.9-15.3-16.1-22.2-31.6-24.2   c-17.2-2.2-34.2-5.2-51.3-8c-20.4-3.4-31.5-16.1-35-35.8c-1.3-7.5-1.3-15.2-1.9-22.9c-0.1-1.7-0.2-3.4-0.3-5.1   C260,280.1,259.4,280.1,258.8,280.1z M395.6,250.7c-0.9-12.4-1.4-24.2-11.6-31.8c-8.7-6.5-18.7-7.1-28.2-1.7   c-10.1,5.7-12.7,15.8-14.1,27.1C360.3,242.2,377.8,243.4,395.6,250.7z"/><path d="M58.1,106.2c27.1-27.8,56.4-57.8,85.7-87.8c-4.5,11.1-5.1,22.5-4.8,34c0.3,13.6,0.5,27.3,0.7,40.9c0.1,6.6-1.2,8-7.7,8   c-18,0.2-36-0.1-53.9,0.7C70.2,102.4,62.6,105.2,58.1,106.2z"/></g></svg>